HIERARCHY
ROOT Hips
{
    OFFSET 0.000000 0.000000 0.000000
    CHANNELS 6 Xposition Yposition Zposition Zrotation Xrotation Yrotation
    JOINT Spine
    {
        OFFSET -0.000000 7.246840 0.000000
        CHANNELS 3 Zrotation Xrotation Yrotation
        JOINT Spine1
        {
            OFFSET -0.000000 20.289354 0.000000
            CHANNELS 3 Zrotation Xrotation Yrotation
            JOINT Neck
            {
                OFFSET -0.000000 20.206032 1.836912
                CHANNELS 3 Zrotation Xrotation Yrotation
                JOINT Head
                {
                    OFFSET -0.000000 12.372654 -1.767522
                    CHANNELS 3 Zrotation Xrotation Yrotation
                    End Site
                    {
                        OFFSET -0.000000 22.094025 0.000000
                    }
                }
            }
            JOINT LeftShoulder
            {
                OFFSET 3.465871 17.201674 -0.568930
                CHANNELS 3 Zrotation Xrotation Yrotation
                JOINT LeftArm
                {
                    OFFSET 14.070313 0.000000 0.000000
                    CHANNELS 3 Zrotation Xrotation Yrotation
                    JOINT LeftForeArm
                    {
                        OFFSET 26.549477 0.000000 0.000000
                        CHANNELS 3 Zrotation Xrotation Yrotation
                        JOINT LeftHand
                        {
                            OFFSET 18.880413 0.000000 0.000000
                            CHANNELS 3 Zrotation Xrotation Yrotation
                            End Site
                            {
                                OFFSET 13.256415 0.000000 0.000000
                            }
                        }
                    }
                }
            }
            JOINT RightShoulder
            {
                OFFSET -3.526370 17.201674 -0.568930
                CHANNELS 3 Zrotation Xrotation Yrotation
                JOINT RightArm
                {
                    OFFSET -14.070313 0.000000 0.000000
                    CHANNELS 3 Zrotation Xrotation Yrotation
                    JOINT RightForeArm
                    {
                        OFFSET -26.549477 0.000000 0.000000
                        CHANNELS 3 Zrotation Xrotation Yrotation
                        JOINT RightHand
                        {
                            OFFSET -18.880413 0.000000 0.000000
                            CHANNELS 3 Zrotation Xrotation Yrotation
                            End Site
                            {
                                OFFSET -13.256415 0.000000 0.000000
                            }
                        }
                    }
                }
            }
        }
    }
    JOINT LeftUpLeg
    {
        OFFSET 8.837609 0.000000 0.000000
        CHANNELS 3 Zrotation Xrotation Yrotation
        JOINT LeftLeg
        {
            OFFSET -0.000000 -41.345005 0.000000
            CHANNELS 3 Zrotation Xrotation Yrotation
            JOINT LeftFoot
            {
                OFFSET -0.000000 -35.500874 0.000000
                CHANNELS 3 Zrotation Xrotation Yrotation
                JOINT LeftToeBase
                {
                    OFFSET -0.000000 -5.744446 13.256415
                    CHANNELS 3 Zrotation Xrotation Yrotation
                    End Site
                    {
                        OFFSET -0.000000 0.000000 3.535044
                    }
                }
            }
        }
    }
    JOINT RightUpLeg
    {
        OFFSET -8.837609 0.000000 0.000000
        CHANNELS 3 Zrotation Xrotation Yrotation
        JOINT RightLeg
        {
            OFFSET -0.000000 -41.345005 0.000000
            CHANNELS 3 Zrotation Xrotation Yrotation
            JOINT RightFoot
            {
                OFFSET -0.000000 -35.500874 0.000000
                CHANNELS 3 Zrotation Xrotation Yrotation
                JOINT RightToeBase
                {
                    OFFSET -0.000000 -5.744446 13.256415
                    CHANNELS 3 Zrotation Xrotation Yrotation
                    End Site
                    {
                        OFFSET -0.000000 0.000000 3.535044
                    }
                }
            }
        }
    }
}
MOTION
Frames:    5
Frame Time:    0.010000
2.118035    82.361092    -69.238052    2.112393    3.359872    3.718679    -12.124011    -13.860039    0.325950    4.254609    5.940043    1.584152    -10.848359    28.591087    -2.341051    15.862350    -6.892457    -0.542057    16.676588    -5.871573    9.738656    -53.954163    -17.948334    -22.770222    -21.460024    -18.403328    -124.605011    -21.271049    -46.391766    -47.800045    -7.753580    5.842497    14.573269    84.544807    52.331581    -1.222373    -6.389453    -17.146715    25.290918    31.945614    -9.194169    23.197016    0.205745    4.428307    -5.726425    -3.018970    -9.567919    -5.800874    4.150467    1.945086    -2.961336    0.021425    0.202510    -0.029957    -6.042273    3.289813    1.203256    7.899932    -8.448477    3.330241    -3.104865    0.103008    -10.223598    0.621740    -1.072468    -1.128068    
2.110852    82.356369    -69.245430    2.099403    3.386230    3.690722    -12.170035    -13.849491    0.344706    4.235288    5.990436    1.606555    -10.978857    28.611290    -2.352779    16.040531    -7.046400    -0.515028    16.725067    -5.938841    9.716615    -53.954163    -17.948334    -22.770222    -21.244253    -16.617796    -126.551300    -22.995308    -45.425629    -48.787136    -7.757292    5.828399    14.548550    84.580513    52.373169    -1.234744    -6.455313    -17.145578    25.313568    31.946230    -9.164729    23.238176    0.213979    4.418485    -5.709785    -2.989853    -9.616244    -5.846478    4.141304    1.949595    -2.947539    -0.025946    0.203514    0.036279    -6.031602    3.273543    1.212182    7.901357    -8.505255    3.356858    -3.125693    0.145292    -10.232990    0.616715    -1.091161    -1.119182    
2.103853    82.353020    -69.249512    2.084496    3.405377    3.655774    -12.221048    -13.847198    0.361017    4.249563    6.070367    1.625169    -11.157333    28.615778    -2.376978    16.257349    -7.213294    -0.494886    16.727097    -5.981590    9.706131    -53.954163    -17.948334    -22.770222    -20.694187    -15.166293    -128.290665    -24.762516    -43.967979    -49.776955    -7.782008    5.804882    14.531350    84.628319    52.361660    -1.247489    -6.522473    -17.140787    25.335373    31.933578    -9.144522    23.244286    0.240143    4.414615    -5.745501    -3.016441    -9.639461    -5.722479    4.180214    1.930669    -2.946736    0.013534    0.251144    -0.018919    -6.019066    3.263172    1.216542    7.916617    -8.542711    3.376724    -3.063692    0.158781    -10.209949    0.642756    -1.065833    -1.166112    
2.096279    82.348160    -69.255844    2.074479    3.429086    3.621068    -12.280169    -13.834715    0.380943    4.267262    6.125604    1.648012    -11.191957    28.659376    -2.431404    16.293549    -7.472157    -0.517587    16.763716    -6.037124    9.666057    -53.954163    -17.948334    -22.770222    -20.037827    -13.956307    -129.838379    -26.513643    -42.298218    -50.700020    -7.797518    5.807074    14.497612    84.644737    52.364353    -1.242643    -6.572051    -17.156143    25.361385    31.902454    -9.150105    23.259676    0.249571    4.403949    -5.719071    -3.017390    -9.657510    -5.689855    4.179929    1.920641    -2.934118    0.033773    0.273764    -0.047203    -6.012396    3.248409    1.232004    7.933982    -8.584339    3.336849    -3.082408    0.186363    -10.142479    0.651977    -1.064948    -1.182829    
2.090764    82.343651    -69.258553    2.058077    3.452161    3.575129    -12.304937    -13.825696    0.408222    4.260900    6.166399    1.676163    -11.061424    28.787519    -2.553935    16.066814    -7.864115    -0.638008    16.873283    -6.096544    9.613763    -53.954163    -17.948334    -22.770222    -19.692585    -12.883418    -131.164276    -28.470900    -40.877403    -52.109001    -7.800174    5.825885    14.478534    84.662621    52.318542    -1.240162    -6.619596    -17.164717    25.369867    31.894817    -9.146790    23.269018    0.267005    4.403457    -5.712488    -2.994659    -9.709188    -5.730551    4.161413    1.925126    -2.898952    0.016128    0.275425    -0.022542    -5.997335    3.233396    1.239668    7.944049    -8.629850    3.329896    -3.090351    0.218675    -10.090281    0.637861    -1.039097    -1.156891    
